<?xml version="1.0" encoding="utf-8"?>
<svg xmlns="http://www.w3.org/2000/svg" viewBox="0 0 500 500">
  <defs>
    <radialGradient gradientUnits="userSpaceOnUse" cx="248.075" cy="233.211" r="45.693" id="gradient-0" gradientTransform="matrix(1, 0, 0, 0.869748, 1.151924, 40.935536)">
      <stop offset="0" style=""/>
      <stop offset="1" style="stop-opacity: 0;"/>
    </radialGradient>
  </defs>
  <g transform="matrix(1, 0, 0, 1, 0, 58.36451)">
    <path style="stroke: rgba(0, 0, 0, 0); fill: rgb(171, 122, 255);" d="M 210.061 239.825 L 228.876 164.182 L 324.102 95.45 L 286.472 161.494 L 285.32 250.576 L 210.061 239.825 Z"/>
    <ellipse style="stroke: rgba(0, 0, 0, 0); fill: url(&quot;#gradient-0&quot;);" cx="249.227" cy="243.77" rx="45.693" ry="39.741"/>
    <g transform="matrix(1, 0, 0, 1, 52.660007, 68.017006)">
      <ellipse style="fill: rgb(216, 216, 216); stroke: rgba(0, 0, 0, 0);" cx="174.523" cy="184.666" rx="24.761" ry="24.761"/>
      <ellipse style="fill: rgb(216, 216, 216); stroke: rgba(0, 0, 0, 0);" cx="201.372" cy="176.909" rx="28.938" ry="28.938"/>
      <ellipse style="fill: rgb(216, 216, 216); stroke: rgba(0, 0, 0, 0);" cx="229.415" cy="187.649" rx="15.811" ry="15.811"/>
      <ellipse style="fill: rgb(216, 216, 216); stroke: rgba(0, 0, 0, 0);" cx="156.921" cy="199.284" rx="15.513" ry="15.513"/>
      <ellipse style="fill: rgb(216, 216, 216); stroke: rgba(0, 0, 0, 0);" cx="237.471" cy="195.107" rx="15.811" ry="15.811"/>
      <path style="fill: rgb(216, 216, 216); stroke: rgba(0, 0, 0, 0);" d="M 141.387 198.191 L 141.852 215.995 L 253.293 215.514 L 253.293 194.34 L 141.387 198.191 Z"/>
    </g>
    <rect x="172.853" y="279.758" width="154.293" height="8.063" style="fill: rgb(171, 122, 255); stroke: rgba(0, 0, 0, 0);" rx="4.031" ry="4.031"/>
  </g>
</svg>