<?xml version="1.0" standalone="no"?>
<!DOCTYPE svg PUBLIC "-//W3C//DTD SVG 20010904//EN"
 "http://www.w3.org/TR/2001/REC-SVG-20010904/DTD/svg10.dtd">
<svg version="1.0" xmlns="http://www.w3.org/2000/svg"
 width="512.000000pt" height="512.000000pt" viewBox="0 0 512.000000 512.000000"
 preserveAspectRatio="xMidYMid meet">

<g transform="translate(0.000000,512.000000) scale(0.100000,-0.100000)"
fill="#000000" stroke="none">
<path d="M2103 4583 c-12 -2 -34 -18 -48 -34 -70 -85 18 -207 118 -165 37 15
67 59 67 96 0 37 -30 81 -65 96 -19 8 -38 13 -42 13 -4 -1 -18 -4 -30 -6z"/>
<path d="M2943 4575 c-33 -14 -63 -59 -63 -95 0 -37 30 -81 67 -96 68 -29 143
21 143 95 0 46 -23 79 -66 97 -40 17 -41 17 -81 -1z"/>
<path d="M1194 4036 c-43 -19 -101 -82 -115 -123 -30 -92 7 -198 88 -253 31
-21 48 -25 113 -25 65 0 82 4 113 25 21 14 50 43 65 64 24 35 27 49 27 116 0
67 -3 81 -27 116 -44 63 -90 88 -167 91 -41 2 -78 -2 -97 -11z"/>
<path d="M2045 4034 c-141 -77 -167 -250 -52 -351 137 -120 351 -24 351 157 0
70 -33 133 -92 174 -36 25 -54 31 -110 33 -48 2 -76 -1 -97 -13z"/>
<path d="M2910 4039 c-117 -47 -170 -190 -110 -299 67 -119 225 -147 327 -57
114 100 89 277 -49 348 -40 21 -125 25 -168 8z"/>
<path d="M3754 4036 c-43 -19 -101 -82 -115 -123 -30 -92 7 -198 88 -253 31
-21 48 -25 113 -25 65 0 82 4 113 25 21 14 50 43 65 64 24 35 27 49 27 116 0
67 -3 81 -27 116 -44 63 -90 88 -167 91 -41 2 -78 -2 -97 -11z"/>
<path d="M2053 3295 c-120 -33 -198 -113 -229 -236 -50 -195 103 -389 305
-389 97 0 157 25 226 95 70 69 95 129 95 226 0 204 -202 359 -397 304z"/>
<path d="M2909 3296 c-184 -49 -285 -241 -222 -421 26 -72 120 -165 192 -188
118 -37 244 -11 325 67 184 180 107 477 -141 541 -67 18 -92 18 -154 1z"/>
<path d="M1200 3184 c-46 -20 -87 -60 -112 -108 -30 -59 -22 -151 18 -208 42
-60 104 -93 175 -92 182 2 276 215 156 351 -59 67 -159 91 -237 57z"/>
<path d="M3760 3184 c-46 -20 -87 -60 -112 -108 -30 -59 -22 -151 18 -208 42
-60 104 -93 175 -92 182 2 276 215 156 351 -59 67 -159 91 -237 57z"/>
<path d="M572 3065 c-36 -30 -47 -75 -28 -120 15 -35 59 -65 96 -65 37 0 81
30 96 67 42 100 -80 188 -164 118z"/>
<path d="M4412 3065 c-36 -30 -47 -75 -28 -120 15 -35 59 -65 96 -65 37 0 81
30 96 67 42 100 -80 188 -164 118z"/>
<path d="M2017 2430 c-105 -41 -186 -146 -202 -261 -8 -57 15 -153 49 -206 84
-133 258 -185 398 -121 153 71 223 235 171 399 -23 72 -116 166 -188 192 -66
23 -166 21 -228 -3z"/>
<path d="M2870 2432 c-64 -24 -160 -122 -183 -187 -54 -154 14 -326 156 -394
82 -40 139 -47 215 -27 108 27 172 81 219 181 75 164 -6 361 -177 426 -62 24
-167 24 -230 1z"/>
<path d="M1218 2336 c-57 -21 -85 -42 -115 -87 -37 -56 -44 -149 -15 -205 72
-140 248 -166 349 -51 88 101 62 261 -54 325 -52 29 -118 36 -165 18z"/>
<path d="M3778 2336 c-57 -21 -85 -42 -115 -87 -37 -56 -44 -149 -15 -205 72
-140 248 -166 349 -51 88 101 62 261 -54 325 -52 29 -118 36 -165 18z"/>
<path d="M584 2221 c-89 -54 -47 -191 57 -191 74 0 124 75 95 143 -15 38 -59
67 -98 67 -13 0 -37 -9 -54 -19z"/>
<path d="M4424 2221 c-89 -54 -47 -191 57 -191 74 0 124 75 95 143 -15 38 -59
67 -98 67 -13 0 -37 -9 -54 -19z"/>
<path d="M1194 1476 c-43 -19 -101 -82 -115 -123 -30 -92 7 -198 88 -253 31
-21 48 -25 113 -25 65 0 82 4 113 25 21 14 50 43 65 64 24 35 27 49 27 116 0
67 -3 81 -27 116 -44 63 -90 88 -167 91 -41 2 -78 -2 -97 -11z"/>
<path d="M2045 1474 c-141 -77 -167 -250 -52 -351 137 -120 351 -24 351 157 0
70 -33 133 -92 174 -36 25 -54 31 -110 33 -48 2 -76 -1 -97 -13z"/>
<path d="M2910 1479 c-117 -47 -170 -190 -110 -299 67 -119 225 -147 327 -57
114 100 89 277 -49 348 -40 21 -125 25 -168 8z"/>
<path d="M3754 1476 c-43 -19 -101 -82 -115 -123 -30 -92 7 -198 88 -253 31
-21 48 -25 113 -25 65 0 82 4 113 25 21 14 50 43 65 64 24 35 27 49 27 116 0
67 -3 81 -27 116 -44 63 -90 88 -167 91 -41 2 -78 -2 -97 -11z"/>
<path d="M2103 743 c-12 -2 -34 -18 -48 -34 -70 -85 18 -207 118 -165 37 15
67 59 67 96 0 37 -30 81 -65 96 -19 8 -38 13 -42 13 -4 -1 -18 -4 -30 -6z"/>
<path d="M2943 735 c-33 -14 -63 -59 -63 -95 0 -37 30 -81 67 -96 68 -29 143
21 143 95 0 46 -23 79 -66 97 -40 17 -41 17 -81 -1z"/>
</g>
</svg>
